<?xml version="1.0" standalone="no"?><!DOCTYPE svg PUBLIC "-//W3C//DTD SVG 1.1//EN" "http://www.w3.org/Graphics/SVG/1.1/DTD/svg11.dtd"><svg t="1716225797733" class="icon" viewBox="0 0 1313 1024" version="1.1" xmlns="http://www.w3.org/2000/svg" p-id="10727" xmlns:xlink="http://www.w3.org/1999/xlink" width="256.4453125" height="200"><path d="M517.147715 907.988442h260.959742a58.574914 58.574914 0 0 0 56.295283-60.371572V811.393927h-58.207855v38.637806H523.92865v-38.637806h-58.207855v36.222943c0 32.011422 19.280265 60.371572 51.42692 60.371572z m795.938804-93.69668a80.405274 80.405274 0 0 0-71.866319-79.555242 0.88867 0.88867 0 0 0 0.734118-0.618205V122.346613A127.659311 127.659311 0 0 0 1118.989501 0H194.058381a121.960235 121.960235 0 0 0-116.41571 122.346613V734.118315A83.071283 83.071283 0 0 0 0 816.552074l0.405697 97.792287A105.152789 105.152789 0 0 0 109.963196 1023.90186h1093.121489a106.118734 106.118734 0 0 0 110.349575-109.074526zM155.304661 122.346613A44.858493 44.858493 0 0 1 194.058381 77.275612h924.93112a50.828034 50.828034 0 0 1 45.283508 45.071001V734.118315h-58.207854V220.100262A88.171473 88.171473 0 0 0 1015.208354 135.232321H297.839528a82.607629 82.607629 0 0 0-84.36565 84.867941V734.118315H155.246705V122.346613zM1047.837981 734.118315H271.681733V220.100262A24.689558 24.689558 0 0 1 297.839528 193.18903H1015.208354a30.253402 30.253402 0 0 1 32.629627 26.911232V734.118315z m155.246704 212.507933H109.963196a30.504548 30.504548 0 0 1-31.934147-35.005852L77.623352 811.393927h1157.801177l0.405697 100.226469A31.084115 31.084115 0 0 1 1203.084685 946.626248z" fill="#465975" p-id="10728"></path></svg>